<?xml version="1.0" encoding="utf-8"?>
<svg version="1.0" width="300.000000pt" height="300.000000pt" viewBox="0 0 300.000000 300.000000" preserveAspectRatio="xMidYMid meet" xmlns="http://www.w3.org/2000/svg">
  <g transform="translate(0.000000,300.000000) scale(0.100000,-0.100000)" fill="#000000" stroke="none">
    <path d="M0 1500 l0 -1500 1500 0 1500 0 0 1500 0 1500 -1500 0 -1500 0 0 -1500z m1830 1353 c0 -12 -333 -343 -345 -343 -11 0 -345 331 -345 342 0 5 155 8 345 8 190 0 345 -3 345 -7z m-20 -1488 c-173 -173 -319 -315 -325 -315 -6 0 -152 142 -325 315 l-315 315 320 320 320 320 320 -320 320 -320 -315 -315z m-1315 145 c-93 -93 -173 -170 -177 -170 -5 0 -8 156 -8 347 l0 348 177 -177 178 -178 -170 -170z m2165 168 l0 -353 -177 177 -178 178 175 175 c96 96 176 175 177 175 2 0 3 -159 3 -352z m-995 -1168 l-165 -5 165 -165 c91 -91 165 -168 165 -172 0 -5 -155 -8 -345 -8 -190 0 -345 3 -345 7 0 4 75 83 167 175 l168 168 -170 0 -170 0 175 175 175 175 173 -172 172 -173 -165 -5z" style="fill: rgb(255, 255, 255);"/>
  </g>
</svg>