<?xml version="1.0" encoding="utf-8"?>
<svg version="1.0" width="300.000000pt" height="300.000000pt" viewBox="0 0 300.000000 300.000000" preserveAspectRatio="xMidYMid meet" xmlns="http://www.w3.org/2000/svg">
  <g transform="translate(0.000000,300.000000) scale(0.100000,-0.100000)" fill="#000000" stroke="none">
    <path d="M0 1500 l0 -1500 1500 0 1500 0 0 1500 0 1500 -1500 0 -1500 0 0 -1500z m1645 1069 c240 -30 438 -125 617 -297 149 -143 238 -298 296 -511 24 -92 26 -108 26 -371 l1 -275 -29 -63 c-36 -77 -106 -143 -179 -169 -49 -17 -104 -18 -862 -18 -776 0 -812 1 -860 19 -65 26 -147 103 -176 169 -23 49 -24 65 -27 292 -5 339 16 455 119 655 134 263 368 453 656 535 149 42 270 52 418 34z m201 -1866 c-3 -10 -37 -92 -74 -183 l-69 -165 -184 -3 -185 -2 -72 177 c-40 98 -72 181 -72 186 0 4 149 7 331 7 310 0 330 -1 325 -17z" style="fill: rgb(255, 255, 255);"/>
    <path d="M1345 2180 l-49 -50 62 -63 62 -63 -60 -59 -60 -59 47 -48 48 -48 60 60 60 60 62 -62 63 -62 50 49 50 49 -62 63 -62 63 62 63 62 62 -47 48 -48 47 -62 -62 -63 -62 -63 62 -63 62 -49 -50z" style="fill: rgb(255, 255, 255);"/>
    <path d="M883 1540 c11 -87 76 -177 152 -211 52 -24 89 -24 142 2 70 34 142 144 143 217 l0 32 -221 0 -222 0 6 -40z" style="fill: rgb(255, 255, 255);"/>
    <path d="M1716 1543 c21 -124 125 -233 220 -233 95 1 196 108 219 233 l7 37 -226 0 -227 0 7 -37z" style="fill: rgb(255, 255, 255);"/>
    <path d="M1403 1182 c-61 -81 -110 -148 -108 -150 1 -1 52 20 113 47 l110 50 109 -48 c59 -27 110 -48 111 -46 4 4 -205 282 -217 289 -4 3 -57 -61 -118 -142z" style="fill: rgb(255, 255, 255);"/>
  </g>
</svg>