<?xml version="1.0" standalone="no"?>
<!DOCTYPE svg PUBLIC "-//W3C//DTD SVG 20010904//EN"
 "http://www.w3.org/TR/2001/REC-SVG-20010904/DTD/svg10.dtd">
<svg version="1.0" xmlns="http://www.w3.org/2000/svg"
 width="300.000000pt" height="300.000000pt" viewBox="0 0 300.000000 300.000000"
 preserveAspectRatio="xMidYMid meet">
<metadata>
Created by potrace 1.16, written by Peter Selinger 2001-2019
</metadata>
<g transform="translate(0.000000,300.000000) scale(0.100000,-0.100000)"
fill="#000000" stroke="none">
<path d="M0 1500 l0 -1500 1500 0 1500 0 0 1500 0 1500 -1500 0 -1500 0 0
-1500z m1654 762 c75 -140 136 -256 136 -259 0 -3 -43 -2 -95 2 l-95 7 0 -367
c0 -348 1 -367 17 -354 10 8 93 78 185 157 l167 143 150 -3 151 -3 -352 -301
c-194 -166 -367 -313 -384 -328 l-32 -26 -358 306 c-198 168 -370 317 -384
330 l-25 24 152 0 152 0 180 -155 181 -156 0 366 0 365 -37 -1 c-21 0 -64 -4
-95 -8 -32 -4 -58 -7 -58 -6 0 2 275 510 284 523 5 8 12 10 16 5 4 -4 68 -122
144 -261z m-385 -1392 c232 -198 235 -200 255 -181 12 10 117 100 234 200
l214 181 151 0 152 0 -25 -24 c-23 -21 -693 -593 -732 -624 -14 -12 -64 27
-403 317 l-387 331 154 0 153 0 234 -200z"/>
</g>
</svg>
