<?xml version="1.0" standalone="no"?>
<!DOCTYPE svg PUBLIC "-//W3C//DTD SVG 20010904//EN"
 "http://www.w3.org/TR/2001/REC-SVG-20010904/DTD/svg10.dtd">
<svg version="1.0" xmlns="http://www.w3.org/2000/svg"
 width="300.000000pt" height="300.000000pt" viewBox="0 0 300.000000 300.000000"
 preserveAspectRatio="xMidYMid meet">
<metadata>
Created by potrace 1.16, written by Peter Selinger 2001-2019
</metadata>
<g transform="translate(0.000000,300.000000) scale(0.100000,-0.100000)"
fill="#000000" stroke="none">
<path d="M0 1500 l0 -1500 1500 0 1500 0 0 1500 0 1500 -1500 0 -1500 0 0
-1500z m2295 240 l260 -260 -313 -313 -312 -312 0 140 c0 77 -5 160 -11 184
-40 174 -187 310 -369 341 -220 37 -448 -118 -499 -341 -6 -24 -11 -107 -11
-184 l0 -140 -312 312 -313 313 260 260 260 260 550 0 550 0 260 -260z m-633
-403 c52 -26 107 -83 132 -136 18 -40 21 -70 24 -223 l4 -177 -52 -56 c-29
-30 -57 -55 -61 -55 -5 0 -10 71 -11 158 l-3 157 -42 3 -43 3 0 -211 0 -211
-57 -60 c-31 -32 -61 -59 -68 -59 -7 0 -37 27 -68 59 l-57 60 0 211 0 211 -42
-3 -43 -3 -3 -157 c-1 -87 -6 -158 -11 -158 -4 0 -31 24 -60 54 l-51 55 0 150
c0 172 10 234 48 290 30 44 90 92 137 109 17 7 85 10 160 9 103 -2 138 -6 167
-20z"/>
</g>
</svg>
