<?xml version="1.0" standalone="no"?>
<!DOCTYPE svg PUBLIC "-//W3C//DTD SVG 20010904//EN"
 "http://www.w3.org/TR/2001/REC-SVG-20010904/DTD/svg10.dtd">
<svg version="1.0" xmlns="http://www.w3.org/2000/svg"
 width="300.000000pt" height="300.000000pt" viewBox="0 0 300.000000 300.000000"
 preserveAspectRatio="xMidYMid meet">
<metadata>
Created by potrace 1.16, written by Peter Selinger 2001-2019
</metadata>
<g transform="translate(0.000000,300.000000) scale(0.100000,-0.100000)"
fill="#000000" stroke="none">
<path d="M0 1500 l0 -1500 1500 0 1500 0 0 1500 0 1500 -1500 0 -1500 0 0
-1500z m1594 893 c60 -102 70 -113 104 -122 20 -5 56 -15 79 -20 177 -47 379
-201 486 -373 l48 -76 72 -16 c40 -9 97 -21 127 -27 30 -6 58 -14 63 -18 4 -4
-34 -53 -84 -110 l-91 -103 -3 -126 c-4 -155 -26 -249 -90 -379 -25 -51 -70
-123 -100 -160 -30 -37 -55 -72 -55 -78 0 -5 7 -73 15 -150 7 -77 13 -140 12
-142 -1 -1 -65 26 -141 59 l-138 61 -76 -26 c-125 -41 -189 -50 -339 -45 -122
4 -149 9 -236 38 l-98 33 -136 -59 c-75 -32 -139 -60 -142 -62 -3 -1 0 67 8
152 l15 154 -43 48 c-64 72 -124 182 -161 292 -30 87 -34 111 -38 242 l-4 145
-94 105 c-51 58 -90 108 -86 111 4 3 66 19 137 34 l130 28 33 57 c112 191 318
345 536 400 44 11 80 21 81 23 1 1 21 36 45 77 60 104 91 153 95 148 1 -1 32
-53 69 -115z"/>
<path d="M1233 2141 c-39 -16 -102 -49 -141 -74 -67 -45 -199 -173 -222 -217
-10 -19 -9 -21 7 -17 10 3 74 18 143 33 69 14 130 31 137 36 14 11 157 258
152 263 -2 2 -36 -9 -76 -24z"/>
<path d="M1730 2162 c1 -4 36 -65 79 -137 l77 -130 145 -32 c79 -17 146 -29
148 -27 2 1 -20 32 -48 68 -57 72 -146 147 -232 195 -59 33 -169 74 -169 63z"/>
<path d="M1422 1785 c-74 -21 -134 -58 -186 -116 -147 -163 -136 -394 26 -544
193 -179 497 -117 612 125 28 59 31 74 31 160 0 88 -3 101 -33 162 -83 170
-277 261 -450 213z m140 -214 l36 -79 53 -6 c30 -4 71 -9 92 -12 l37 -6 -67
-62 -67 -62 17 -84 c9 -46 15 -85 13 -88 -3 -2 -36 15 -74 37 -39 23 -75 41
-80 41 -6 0 -42 -19 -82 -41 -39 -23 -73 -40 -75 -38 -1 2 5 42 15 88 l19 84
-67 62 -67 62 40 6 c22 4 63 9 91 12 l50 6 35 80 c18 43 37 79 40 79 3 0 22
-36 41 -79z"/>
<path d="M740 1362 c0 -114 72 -319 143 -406 l24 -29 11 114 c18 172 23 154
-83 273 l-95 107 0 -59z"/>
<path d="M2230 1338 c-40 -45 -84 -95 -97 -109 l-24 -26 12 -132 c8 -83 17
-130 23 -128 21 7 94 139 120 217 25 78 52 227 44 251 -2 6 -37 -27 -78 -73z"/>
<path d="M1409 728 c-63 -27 -118 -53 -122 -58 -16 -15 130 -40 233 -40 103 0
249 25 233 40 -4 5 -58 31 -119 58 l-112 49 -113 -49z"/>
</g>
</svg>
